<svg xmlns="http://www.w3.org/2000/svg" xmlns:xlink="http://www.w3.org/1999/xlink" width="500" zoomAndPan="magnify" viewBox="0 0 375 374.999991" height="500" preserveAspectRatio="xMidYMid meet" version="1.0"><defs><g/><clipPath id="32f30561b9"><path d="M 233.816406 144.765625 L 335.78125 144.765625 L 335.78125 198.480469 L 233.816406 198.480469 Z M 233.816406 144.765625 " clip-rule="nonzero"/></clipPath><clipPath id="ac90e018c9"><path d="M 39.214844 144.765625 L 140.910156 144.765625 L 140.910156 198.480469 L 39.214844 198.480469 Z M 39.214844 144.765625 " clip-rule="nonzero"/></clipPath><clipPath id="fccdd385d4"><path d="M 147 184 L 229 184 L 229 192.816406 L 147 192.816406 Z M 147 184 " clip-rule="nonzero"/></clipPath><clipPath id="6d6bf01f4e"><path d="M 181 96.816406 L 194 96.816406 L 194 110 L 181 110 Z M 181 96.816406 " clip-rule="nonzero"/></clipPath><clipPath id="99db8cb587"><path d="M 239 132 L 245.847656 132 L 245.847656 140 L 239 140 Z M 239 132 " clip-rule="nonzero"/></clipPath><clipPath id="c9de53721b"><path d="M 128.847656 132 L 136 132 L 136 140 L 128.847656 140 Z M 128.847656 132 " clip-rule="nonzero"/></clipPath></defs><g clip-path="url(#32f30561b9)"><path fill="#000000" d="M 277.414062 191.117188 C 277.097656 192.121094 276.574219 193.066406 275.898438 193.859375 C 275.222656 194.65625 274.328125 195.257812 273.378906 195.679688 C 271.476562 196.523438 269.125 196.507812 267.441406 195.261719 C 265.742188 194.019531 265.085938 191.753906 265.324219 189.6875 C 265.546875 187.597656 266.539062 185.574219 268.167969 184.238281 C 269.773438 182.863281 271.78125 182.027344 273.839844 181.539062 C 274.527344 181.378906 275.226562 181.261719 275.929688 181.160156 C 276.609375 182.3125 277.160156 183.542969 277.5 184.835938 C 278.03125 186.886719 278.074219 189.105469 277.414062 191.117188 Z M 329.570312 154.472656 C 328.570312 154.03125 327.492188 153.757812 326.398438 153.714844 C 325.300781 153.671875 324.203125 153.859375 323.175781 154.230469 C 321.125 154.972656 319.3125 156.449219 318.304688 158.414062 C 317.316406 160.347656 317.160156 162.867188 318.449219 164.730469 C 319.09375 165.652344 320.105469 166.234375 321.136719 166.5625 C 322.179688 166.898438 323.261719 167.03125 324.332031 167.140625 L 324.355469 166.894531 C 323.296875 166.730469 322.238281 166.542969 321.265625 166.171875 C 320.296875 165.804688 319.425781 165.21875 318.914062 164.394531 C 317.867188 162.738281 318.078125 160.460938 319.035156 158.789062 C 320 157.078125 321.691406 155.816406 323.535156 155.238281 C 325.390625 154.636719 327.347656 154.816406 329.039062 155.675781 C 330.734375 156.507812 332.171875 157.902344 333.117188 159.566406 C 334.085938 161.230469 334.511719 163.113281 334.417969 165.035156 C 334.335938 166.945312 333.761719 168.847656 332.839844 170.554688 C 331.917969 172.269531 330.65625 173.761719 329.144531 175.015625 C 327.640625 176.265625 325.910156 177.269531 324.074219 178.046875 C 323.152344 178.433594 322.214844 178.789062 321.25 179.078125 C 320.296875 179.390625 319.289062 179.578125 318.304688 179.808594 C 314.324219 180.648438 310.164062 180.679688 305.992188 180.4375 C 301.8125 180.183594 297.578125 179.636719 293.28125 179.152344 C 288.988281 178.664062 284.601562 178.242188 280.121094 178.351562 C 278.957031 178.367188 277.761719 178.4375 276.550781 178.574219 C 276.394531 178.371094 276.25 178.160156 276.085938 177.964844 C 273.011719 174.316406 268.59375 172.015625 264.070312 171.273438 C 259.539062 170.503906 254.90625 171.066406 250.707031 172.671875 C 246.507812 174.300781 242.824219 177.003906 239.878906 180.289062 C 238.398438 181.925781 237.140625 183.761719 236.109375 185.695312 C 235.941406 186.023438 235.789062 186.359375 235.632812 186.691406 C 236.777344 182.59375 238.417969 178.566406 241.273438 175.410156 C 244.464844 171.84375 248.929688 169.683594 253.511719 168.53125 C 258.125 167.34375 262.933594 167.21875 267.691406 167.335938 C 272.457031 167.449219 277.226562 167.824219 282.027344 167.660156 C 284.421875 167.558594 286.832031 167.277344 289.148438 166.574219 C 291.460938 165.875 293.65625 164.707031 295.441406 163.046875 C 297.222656 161.40625 298.605469 159.273438 299.183594 156.886719 C 299.769531 154.523438 299.589844 151.9375 298.523438 149.726562 C 297.46875 147.511719 295.441406 145.808594 293.105469 145.109375 C 290.785156 144.378906 288.078125 144.816406 286.210938 146.4375 C 285.28125 147.234375 284.5625 148.308594 284.296875 149.523438 C 284.03125 150.722656 284.15625 152.023438 284.722656 153.125 C 285.796875 155.410156 289.050781 156.261719 291.042969 154.667969 L 290.886719 154.472656 C 289.910156 155.113281 288.6875 155.160156 287.675781 154.792969 C 286.640625 154.441406 285.84375 153.691406 285.476562 152.734375 C 285.09375 151.792969 285.066406 150.707031 285.355469 149.765625 C 285.636719 148.828125 286.265625 148.023438 287.058594 147.441406 C 288.660156 146.234375 290.789062 146.023438 292.625 146.71875 C 294.472656 147.398438 296.039062 148.824219 296.765625 150.582031 C 297.527344 152.355469 297.59375 154.457031 297.078125 156.363281 C 296.566406 158.253906 295.394531 159.972656 293.863281 161.316406 C 292.324219 162.667969 290.492188 163.65625 288.449219 164.246094 C 286.410156 164.84375 284.199219 165.089844 281.925781 165.164062 C 277.339844 165.371094 272.585938 165.03125 267.742188 164.980469 C 265.316406 164.972656 262.859375 165.039062 260.394531 165.261719 C 257.925781 165.476562 255.4375 165.90625 253.03125 166.621094 C 250.617188 167.320312 248.253906 168.277344 246.074219 169.578125 C 243.90625 170.902344 241.898438 172.535156 240.296875 174.523438 C 238.699219 176.511719 237.527344 178.761719 236.699219 181.078125 C 235.863281 183.394531 235.347656 185.777344 234.980469 188.164062 C 234.515625 189.359375 234.113281 190.578125 233.816406 191.820312 L 234.058594 191.890625 C 236.460938 183.609375 243.066406 176.753906 251.144531 173.917969 C 255.167969 172.5 259.566406 172.066406 263.765625 172.882812 C 267.832031 173.644531 271.660156 175.75 274.339844 178.921875 C 273.984375 178.992188 273.628906 179.054688 273.273438 179.140625 C 270.964844 179.699219 268.582031 180.675781 266.59375 182.390625 C 266.347656 182.605469 266.113281 182.835938 265.875 183.058594 C 265.644531 183.3125 265.410156 183.578125 265.183594 183.84375 C 264.980469 184.121094 264.773438 184.398438 264.585938 184.6875 C 264.414062 184.980469 264.234375 185.269531 264.082031 185.574219 C 263.46875 186.78125 263.085938 188.085938 262.949219 189.4375 C 262.8125 190.789062 262.929688 192.207031 263.417969 193.585938 C 263.894531 194.957031 264.820312 196.277344 266.054688 197.160156 C 271.402344 200.757812 278.140625 196.96875 279.484375 191.796875 C 280.265625 189.28125 280.171875 186.683594 279.519531 184.304688 C 279.179688 183.113281 278.707031 181.988281 278.128906 180.929688 C 278.8125 180.886719 279.5 180.855469 280.1875 180.847656 C 288.769531 180.597656 297.265625 182.367188 305.875 182.78125 C 310.171875 182.972656 314.53125 182.894531 318.761719 181.945312 C 322.976562 181.058594 327.113281 179.34375 330.410156 176.476562 C 333.695312 173.648438 335.953125 169.472656 336.042969 165.0625 C 336.203125 160.667969 333.589844 156.273438 329.570312 154.472656 " fill-opacity="1" fill-rule="nonzero"/></g><g clip-path="url(#ac90e018c9)"><path fill="#000000" d="M 97.582031 191.117188 C 97.898438 192.121094 98.421875 193.066406 99.097656 193.859375 C 99.773438 194.65625 100.667969 195.257812 101.617188 195.679688 C 103.519531 196.523438 105.871094 196.507812 107.554688 195.261719 C 109.253906 194.019531 109.910156 191.753906 109.671875 189.6875 C 109.449219 187.597656 108.457031 185.574219 106.828125 184.238281 C 105.222656 182.863281 103.214844 182.027344 101.15625 181.539062 C 100.46875 181.378906 99.769531 181.261719 99.066406 181.160156 C 98.386719 182.3125 97.835938 183.542969 97.496094 184.835938 C 96.964844 186.886719 96.921875 189.105469 97.582031 191.117188 Z M 45.425781 154.472656 C 46.425781 154.03125 47.503906 153.757812 48.601562 153.714844 C 49.695312 153.671875 50.792969 153.859375 51.820312 154.230469 C 53.871094 154.972656 55.683594 156.449219 56.691406 158.414062 C 57.679688 160.347656 57.835938 162.867188 56.546875 164.730469 C 55.902344 165.652344 54.890625 166.234375 53.859375 166.5625 C 52.816406 166.898438 51.734375 167.03125 50.664062 167.140625 L 50.640625 166.894531 C 51.699219 166.730469 52.757812 166.542969 53.730469 166.171875 C 54.699219 165.804688 55.570312 165.21875 56.082031 164.394531 C 57.128906 162.738281 56.917969 160.460938 55.960938 158.789062 C 54.996094 157.078125 53.304688 155.816406 51.460938 155.238281 C 49.605469 154.636719 47.648438 154.816406 45.957031 155.675781 C 44.261719 156.507812 42.824219 157.902344 41.878906 159.566406 C 40.910156 161.230469 40.484375 163.113281 40.578125 165.035156 C 40.660156 166.945312 41.234375 168.847656 42.15625 170.554688 C 43.078125 172.269531 44.339844 173.761719 45.851562 175.015625 C 47.359375 176.265625 49.085938 177.269531 50.921875 178.046875 C 51.84375 178.433594 52.78125 178.789062 53.746094 179.078125 C 54.699219 179.390625 55.707031 179.578125 56.691406 179.808594 C 60.671875 180.648438 64.832031 180.679688 69.003906 180.4375 C 73.183594 180.183594 77.417969 179.636719 81.714844 179.152344 C 86.007812 178.664062 90.394531 178.242188 94.875 178.351562 C 96.039062 178.367188 97.234375 178.4375 98.445312 178.574219 C 98.601562 178.371094 98.746094 178.160156 98.910156 177.964844 C 101.984375 174.316406 106.402344 172.015625 110.925781 171.273438 C 115.457031 170.503906 120.089844 171.066406 124.289062 172.671875 C 128.488281 174.300781 132.171875 177.003906 135.117188 180.289062 C 136.597656 181.925781 137.855469 183.761719 138.886719 185.695312 C 139.054688 186.023438 139.207031 186.359375 139.363281 186.691406 C 138.21875 182.59375 136.582031 178.566406 133.722656 175.410156 C 130.53125 171.84375 126.066406 169.683594 121.484375 168.53125 C 116.871094 167.34375 112.0625 167.21875 107.304688 167.335938 C 102.539062 167.449219 97.769531 167.824219 92.96875 167.660156 C 90.578125 167.558594 88.164062 167.277344 85.847656 166.574219 C 83.539062 165.875 81.339844 164.707031 79.558594 163.046875 C 77.773438 161.40625 76.390625 159.273438 75.8125 156.886719 C 75.226562 154.523438 75.40625 151.9375 76.472656 149.726562 C 77.527344 147.511719 79.554688 145.808594 81.890625 145.109375 C 84.210938 144.378906 86.917969 144.816406 88.785156 146.4375 C 89.714844 147.234375 90.433594 148.308594 90.699219 149.523438 C 90.964844 150.722656 90.839844 152.023438 90.273438 153.125 C 89.199219 155.410156 85.949219 156.261719 83.953125 154.667969 L 84.109375 154.472656 C 85.085938 155.113281 86.308594 155.160156 87.320312 154.792969 C 88.355469 154.441406 89.152344 153.691406 89.519531 152.734375 C 89.902344 151.792969 89.929688 150.707031 89.640625 149.765625 C 89.359375 148.828125 88.730469 148.023438 87.9375 147.441406 C 86.335938 146.234375 84.207031 146.023438 82.371094 146.71875 C 80.523438 147.398438 78.957031 148.824219 78.230469 150.582031 C 77.46875 152.355469 77.402344 154.457031 77.917969 156.363281 C 78.429688 158.253906 79.601562 159.972656 81.132812 161.316406 C 82.671875 162.667969 84.503906 163.65625 86.546875 164.246094 C 88.585938 164.84375 90.796875 165.089844 93.070312 165.164062 C 97.65625 165.371094 102.410156 165.03125 107.253906 164.980469 C 109.679688 164.972656 112.136719 165.039062 114.601562 165.261719 C 117.070312 165.476562 119.558594 165.90625 121.964844 166.621094 C 124.378906 167.320312 126.742188 168.277344 128.921875 169.578125 C 131.089844 170.902344 133.097656 172.535156 134.699219 174.523438 C 136.296875 176.511719 137.46875 178.761719 138.296875 181.078125 C 139.132812 183.394531 139.648438 185.777344 140.015625 188.164062 C 140.480469 189.359375 140.882812 190.578125 141.179688 191.820312 L 140.9375 191.890625 C 138.535156 183.609375 131.929688 176.753906 123.851562 173.917969 C 119.828125 172.5 115.429688 172.066406 111.230469 172.882812 C 107.164062 173.644531 103.335938 175.75 100.65625 178.921875 C 101.011719 178.992188 101.367188 179.054688 101.722656 179.140625 C 104.03125 179.699219 106.414062 180.675781 108.402344 182.390625 C 108.648438 182.605469 108.882812 182.835938 109.121094 183.058594 C 109.355469 183.3125 109.585938 183.578125 109.8125 183.84375 C 110.015625 184.121094 110.222656 184.398438 110.410156 184.6875 C 110.582031 184.980469 110.761719 185.269531 110.914062 185.574219 C 111.527344 186.78125 111.910156 188.085938 112.046875 189.4375 C 112.183594 190.789062 112.066406 192.207031 111.578125 193.585938 C 111.101562 194.957031 110.175781 196.277344 108.941406 197.160156 C 103.597656 200.757812 96.855469 196.96875 95.511719 191.796875 C 94.730469 189.28125 94.824219 186.683594 95.476562 184.304688 C 95.816406 183.113281 96.289062 181.988281 96.867188 180.929688 C 96.183594 180.886719 95.496094 180.855469 94.808594 180.847656 C 86.226562 180.597656 77.730469 182.367188 69.121094 182.78125 C 64.824219 182.972656 60.464844 182.894531 56.234375 181.945312 C 52.019531 181.058594 47.882812 179.34375 44.585938 176.476562 C 41.300781 173.648438 39.042969 169.472656 38.953125 165.0625 C 38.792969 160.667969 41.40625 156.273438 45.425781 154.472656 " fill-opacity="1" fill-rule="nonzero"/></g><path fill="#000000" d="M 159.582031 140.804688 C 159.550781 140.757812 159.535156 140.703125 159.503906 140.652344 C 159.445312 140.554688 159.40625 140.449219 159.363281 140.347656 C 159.355469 140.324219 159.347656 140.300781 159.335938 140.277344 C 159.292969 140.039062 159.238281 139.804688 159.164062 139.570312 L 159.160156 139.558594 C 159.007812 139.082031 158.535156 138.761719 158.019531 138.820312 C 157.429688 138.882812 157.003906 139.410156 157.066406 140 C 157.078125 140.105469 157.085938 140.148438 157.097656 140.207031 C 157.105469 140.265625 157.121094 140.316406 157.132812 140.367188 C 157.15625 140.472656 157.1875 140.566406 157.21875 140.664062 C 157.21875 140.664062 157.21875 140.667969 157.21875 140.667969 C 157.242188 140.777344 157.261719 140.886719 157.28125 141 C 157.308594 141.265625 157.335938 141.539062 157.332031 141.820312 C 157.332031 142.382812 157.257812 142.976562 157.148438 143.582031 C 157.039062 144.1875 156.882812 144.808594 156.710938 145.441406 C 156.539062 146.078125 156.34375 146.71875 156.144531 147.402344 C 156.445312 147.203125 156.714844 146.976562 156.96875 146.730469 C 157.222656 146.484375 157.457031 146.222656 157.679688 145.945312 C 158.121094 145.390625 158.5 144.777344 158.796875 144.113281 C 158.941406 143.792969 159.066406 143.457031 159.164062 143.109375 C 159.386719 143.246094 159.613281 143.367188 159.84375 143.46875 L 160.339844 143.65625 C 160.507812 143.703125 160.675781 143.742188 160.84375 143.777344 C 160.925781 143.796875 161.011719 143.820312 161.09375 143.835938 C 161.175781 143.84375 161.261719 143.851562 161.347656 143.859375 C 161.515625 143.875 161.679688 143.894531 161.847656 143.90625 C 162.179688 143.90625 162.507812 143.890625 162.828125 143.859375 C 163.152344 143.804688 163.46875 143.738281 163.78125 143.652344 C 163.480469 143.515625 163.191406 143.390625 162.902344 143.285156 L 162.082031 142.910156 C 161.953125 142.835938 161.824219 142.773438 161.699219 142.703125 C 161.632812 142.671875 161.570312 142.636719 161.507812 142.605469 C 161.449219 142.570312 161.390625 142.53125 161.332031 142.492188 C 161.214844 142.417969 161.097656 142.34375 160.984375 142.277344 L 160.667969 142.03125 C 160.257812 141.707031 159.925781 141.34375 159.675781 140.953125 L 159.582031 140.804688 " fill-opacity="1" fill-rule="nonzero"/><path fill="#000000" d="M 239.457031 141.175781 L 239.410156 141.226562 C 239.296875 141.34375 239.152344 141.488281 239.019531 141.621094 L 238.605469 142.027344 C 238.328125 142.296875 238.042969 142.558594 237.753906 142.820312 C 237.175781 143.34375 236.582031 143.851562 235.972656 144.339844 C 234.761719 145.320312 233.503906 146.246094 232.199219 147.089844 C 229.59375 148.773438 226.804688 150.148438 223.902344 151.003906 C 221 151.855469 217.980469 152.128906 215.089844 151.640625 C 213.644531 151.398438 212.238281 150.96875 210.894531 150.375 C 209.550781 149.777344 208.28125 149.011719 207.082031 148.128906 C 204.675781 146.359375 202.59375 144.101562 200.777344 141.625 C 199.871094 140.386719 199.023438 139.089844 198.226562 137.761719 C 197.429688 136.425781 196.691406 135.054688 195.996094 133.652344 C 193.226562 128.042969 191.105469 122.058594 189.351562 115.972656 C 189.171875 115.363281 188.691406 114.839844 188.035156 114.652344 C 187.011719 114.355469 185.941406 114.945312 185.644531 115.96875 C 183.886719 122.058594 181.761719 128.035156 178.992188 133.648438 C 178.296875 135.046875 177.554688 136.417969 176.761719 137.753906 C 175.964844 139.082031 175.113281 140.375 174.207031 141.617188 C 172.390625 144.089844 170.308594 146.351562 167.90625 148.117188 C 166.707031 149 165.433594 149.769531 164.09375 150.363281 C 162.75 150.960938 161.34375 151.390625 159.898438 151.632812 C 157.011719 152.125 153.992188 151.851562 151.09375 151 C 148.191406 150.148438 145.402344 148.769531 142.796875 147.085938 C 141.496094 146.246094 140.238281 145.320312 139.023438 144.339844 C 138.417969 143.847656 137.824219 143.339844 137.246094 142.820312 C 136.957031 142.558594 136.671875 142.292969 136.394531 142.023438 L 135.980469 141.621094 C 135.847656 141.488281 135.703125 141.339844 135.589844 141.222656 L 135.546875 141.171875 C 135.171875 140.78125 134.566406 140.675781 134.074219 140.957031 C 133.5 141.285156 133.300781 142.019531 133.628906 142.597656 L 138.222656 150.625 L 142.863281 158.628906 C 144.402344 161.300781 145.972656 163.953125 147.535156 166.613281 L 148.707031 168.605469 L 149.894531 170.59375 L 152.273438 174.5625 L 150.257812 170.398438 L 149.246094 168.316406 L 148.21875 166.242188 C 146.851562 163.480469 145.492188 160.710938 144.101562 157.957031 L 139.949219 149.691406 L 138.894531 147.617188 C 139.660156 148.230469 140.445312 148.824219 141.253906 149.386719 C 143.976562 151.277344 146.949219 152.890625 150.1875 153.9375 C 151.808594 154.453125 153.488281 154.835938 155.207031 155.011719 C 156.925781 155.195312 158.683594 155.167969 160.414062 154.914062 C 162.140625 154.664062 163.839844 154.183594 165.449219 153.511719 C 167.054688 152.835938 168.574219 151.972656 169.972656 150.972656 C 172.777344 148.96875 175.128906 146.476562 177.148438 143.8125 C 179.171875 141.140625 180.863281 138.277344 182.359375 135.34375 C 183.109375 133.875 183.804688 132.382812 184.457031 130.882812 C 185.109375 129.375 185.714844 127.855469 186.289062 126.324219 C 186.710938 125.203125 187.113281 124.074219 187.496094 122.9375 C 187.882812 124.074219 188.285156 125.203125 188.703125 126.328125 C 189.847656 129.386719 191.136719 132.40625 192.632812 135.34375 C 194.125 138.28125 195.816406 141.148438 197.839844 143.816406 C 199.863281 146.480469 202.214844 148.976562 205.019531 150.976562 C 206.421875 151.972656 207.9375 152.835938 209.546875 153.511719 C 211.152344 154.183594 212.851562 154.660156 214.582031 154.910156 C 216.3125 155.167969 218.066406 155.1875 219.785156 155.003906 C 221.503906 154.828125 223.183594 154.445312 224.800781 153.929688 C 228.042969 152.882812 231.015625 151.269531 233.738281 149.378906 C 234.554688 148.808594 235.347656 148.210938 236.121094 147.59375 L 235.050781 149.695312 L 230.898438 157.960938 C 229.507812 160.710938 228.148438 163.480469 226.78125 166.246094 L 225.753906 168.316406 L 224.742188 170.398438 L 222.722656 174.5625 L 225.101562 170.59375 L 226.285156 168.605469 L 227.460938 166.613281 C 229.019531 163.953125 230.59375 161.296875 232.132812 158.625 L 236.769531 150.621094 L 241.363281 142.59375 C 241.632812 142.125 241.554688 141.519531 241.148438 141.132812 C 240.667969 140.675781 239.910156 140.695312 239.457031 141.175781 " fill-opacity="1" fill-rule="nonzero"/><path fill="#000000" d="M 213.152344 143.90625 C 213.316406 143.894531 213.484375 143.875 213.652344 143.859375 C 213.734375 143.851562 213.820312 143.84375 213.902344 143.835938 C 213.988281 143.820312 214.070312 143.796875 214.152344 143.777344 C 214.320312 143.742188 214.488281 143.703125 214.65625 143.65625 L 215.152344 143.46875 C 215.382812 143.367188 215.613281 143.246094 215.832031 143.109375 C 215.933594 143.457031 216.054688 143.792969 216.199219 144.113281 C 216.5 144.777344 216.875 145.390625 217.316406 145.945312 C 217.539062 146.222656 217.773438 146.484375 218.03125 146.730469 C 218.28125 146.976562 218.554688 147.203125 218.851562 147.402344 C 218.65625 146.71875 218.460938 146.078125 218.285156 145.441406 C 218.117188 144.808594 217.960938 144.1875 217.847656 143.582031 C 217.738281 142.976562 217.667969 142.382812 217.667969 141.820312 C 217.664062 141.539062 217.6875 141.265625 217.71875 141 C 217.734375 140.886719 217.753906 140.777344 217.777344 140.667969 C 217.777344 140.667969 217.78125 140.664062 217.78125 140.664062 C 217.8125 140.566406 217.839844 140.472656 217.863281 140.367188 C 217.878906 140.316406 217.890625 140.265625 217.902344 140.207031 C 217.910156 140.148438 217.921875 140.105469 217.929688 140 C 217.984375 139.503906 217.683594 139.023438 217.191406 138.863281 C 216.625 138.683594 216.019531 138.996094 215.839844 139.5625 L 215.835938 139.570312 C 215.761719 139.804688 215.703125 140.039062 215.660156 140.277344 C 215.652344 140.300781 215.644531 140.324219 215.632812 140.347656 C 215.589844 140.449219 215.550781 140.554688 215.492188 140.652344 C 215.464844 140.703125 215.445312 140.757812 215.414062 140.804688 L 215.324219 140.953125 C 215.070312 141.34375 214.738281 141.707031 214.332031 142.03125 L 214.015625 142.277344 C 213.898438 142.34375 213.785156 142.417969 213.667969 142.492188 C 213.609375 142.53125 213.550781 142.570312 213.488281 142.605469 C 213.425781 142.636719 213.363281 142.671875 213.300781 142.703125 C 213.171875 142.773438 213.042969 142.835938 212.914062 142.910156 L 212.09375 143.285156 C 211.808594 143.390625 211.515625 143.515625 211.21875 143.652344 C 211.527344 143.738281 211.84375 143.804688 212.167969 143.859375 C 212.488281 143.890625 212.820312 143.90625 213.152344 143.90625 " fill-opacity="1" fill-rule="nonzero"/><path fill="#000000" d="M 169.113281 174.207031 L 168.039062 174.050781 C 167.320312 173.949219 166.609375 173.824219 165.890625 173.722656 C 165.171875 173.625 164.457031 173.488281 163.738281 173.371094 C 163.023438 173.246094 162.3125 173.101562 161.597656 172.96875 C 158.730469 172.429688 155.886719 171.769531 153.039062 170.984375 L 153.023438 170.980469 C 152.96875 170.964844 152.914062 170.992188 152.890625 171.042969 C 152.867188 171.097656 152.894531 171.160156 152.949219 171.1875 C 158.359375 173.53125 164.097656 175.03125 169.890625 176.066406 C 175.6875 177.089844 181.582031 177.597656 187.472656 177.558594 L 188.578125 177.546875 L 189.128906 177.542969 L 189.679688 177.519531 L 191.886719 177.433594 C 192.621094 177.394531 193.355469 177.335938 194.09375 177.285156 L 195.191406 177.207031 L 196.292969 177.097656 C 199.226562 176.839844 202.140625 176.386719 205.039062 175.878906 L 207.203125 175.445312 C 207.5625 175.371094 207.925781 175.3125 208.285156 175.226562 L 209.359375 174.972656 L 211.511719 174.46875 L 213.640625 173.894531 L 214.707031 173.601562 C 215.0625 173.507812 215.410156 173.386719 215.761719 173.28125 L 217.871094 172.625 C 218.574219 172.417969 219.261719 172.15625 219.960938 171.917969 L 222.042969 171.1875 C 222.09375 171.171875 222.125 171.117188 222.113281 171.0625 C 222.101562 171.003906 222.042969 170.964844 221.984375 170.976562 L 221.964844 170.980469 C 216.175781 172.234375 210.464844 173.359375 204.722656 174.148438 C 204.003906 174.246094 203.28125 174.3125 202.5625 174.398438 C 201.847656 174.480469 201.132812 174.585938 200.410156 174.640625 C 199.691406 174.707031 198.972656 174.773438 198.253906 174.851562 C 197.535156 174.917969 196.816406 174.957031 196.097656 175.011719 C 193.21875 175.222656 190.339844 175.351562 187.457031 175.351562 C 181.695312 175.40625 175.9375 175.035156 170.191406 174.339844 L 169.113281 174.207031 " fill-opacity="1" fill-rule="nonzero"/><g clip-path="url(#fccdd385d4)"><path fill="#000000" d="M 228.296875 184.585938 L 228.269531 184.589844 C 221.457031 185.976562 214.800781 187.257812 208.121094 188.121094 C 204.773438 188.503906 201.445312 188.902344 198.097656 189.085938 C 197.679688 189.113281 197.261719 189.144531 196.847656 189.179688 L 195.59375 189.238281 C 194.757812 189.273438 193.921875 189.328125 193.085938 189.351562 L 190.582031 189.421875 L 189.953125 189.4375 L 188.074219 189.4375 C 181.386719 189.472656 174.699219 189.050781 168.015625 188.238281 C 164.671875 187.839844 161.332031 187.328125 157.988281 186.734375 C 156.316406 186.429688 154.648438 186.097656 152.96875 185.757812 L 151.710938 185.488281 L 150.457031 185.199219 C 149.617188 185.019531 148.78125 184.804688 147.945312 184.59375 L 147.90625 184.585938 C 147.835938 184.566406 147.753906 184.605469 147.722656 184.675781 C 147.6875 184.757812 147.722656 184.851562 147.804688 184.886719 C 154.105469 187.707031 160.789062 189.519531 167.546875 190.796875 C 174.3125 192.050781 181.195312 192.703125 188.082031 192.6875 L 189.371094 192.679688 L 190.019531 192.671875 L 190.664062 192.648438 L 193.242188 192.550781 C 194.101562 192.507812 194.960938 192.433594 195.820312 192.378906 L 197.105469 192.289062 L 198.390625 192.15625 C 199.246094 192.066406 200.105469 191.984375 200.957031 191.882812 L 203.515625 191.535156 C 203.941406 191.472656 204.371094 191.425781 204.792969 191.347656 L 206.066406 191.128906 C 206.910156 190.980469 207.761719 190.847656 208.605469 190.679688 L 211.132812 190.152344 C 211.554688 190.0625 211.976562 189.984375 212.394531 189.882812 L 213.648438 189.574219 L 216.152344 188.957031 L 218.632812 188.246094 C 220.292969 187.792969 221.914062 187.210938 223.546875 186.675781 C 224.367188 186.421875 225.164062 186.09375 225.972656 185.796875 L 228.386719 184.894531 C 228.460938 184.867188 228.503906 184.789062 228.488281 184.710938 C 228.472656 184.621094 228.386719 184.566406 228.296875 184.585938 " fill-opacity="1" fill-rule="nonzero"/></g><g clip-path="url(#6d6bf01f4e)"><path fill="#000000" d="M 187.5 109.042969 L 189.660156 105.089844 L 193.617188 102.925781 L 189.660156 100.765625 L 187.5 96.8125 L 185.335938 100.765625 L 181.382812 102.925781 L 185.335938 105.089844 L 187.5 109.042969 " fill-opacity="1" fill-rule="nonzero"/></g><path fill="#000000" d="M 187.5 157.800781 L 189.660156 153.84375 L 193.617188 151.683594 L 189.660156 149.519531 L 187.5 145.566406 L 185.335938 149.519531 L 181.382812 151.683594 L 185.335938 153.84375 L 187.5 157.800781 " fill-opacity="1" fill-rule="nonzero"/><g clip-path="url(#99db8cb587)"><path fill="#000000" d="M 244.417969 135.046875 L 244.03125 132.496094 L 244.027344 132.445312 L 242.046875 134.179688 L 239.449219 134.570312 L 241.179688 136.550781 L 241.566406 139.101562 L 241.574219 139.148438 L 243.550781 137.417969 L 246.148438 137.023438 L 244.417969 135.046875 " fill-opacity="1" fill-rule="nonzero"/></g><path fill="#000000" d="M 217.941406 136.914062 L 219.546875 134.832031 L 222.023438 133.945312 L 219.941406 132.339844 L 219.058594 129.863281 L 217.449219 131.945312 L 214.976562 132.832031 L 217.054688 134.4375 L 217.941406 136.914062 " fill-opacity="1" fill-rule="nonzero"/><g clip-path="url(#c9de53721b)"><path fill="#000000" d="M 135.550781 134.570312 L 132.949219 134.179688 L 130.972656 132.445312 L 130.578125 135.046875 L 128.847656 137.023438 L 131.445312 137.417969 L 133.425781 139.148438 L 133.816406 136.550781 L 135.550781 134.570312 " fill-opacity="1" fill-rule="nonzero"/></g><path fill="#000000" d="M 157.027344 136.875 L 157.058594 136.914062 L 157.941406 134.4375 L 160.023438 132.832031 L 157.546875 131.945312 L 155.96875 129.902344 L 155.941406 129.863281 L 155.054688 132.339844 L 152.976562 133.945312 L 155.449219 134.832031 L 157.027344 136.875 " fill-opacity="1" fill-rule="nonzero"/><path fill="#000000" d="M 184.132812 183.789062 C 184.132812 185.644531 185.644531 187.15625 187.5 187.15625 C 189.355469 187.15625 190.863281 185.644531 190.863281 183.789062 C 190.863281 181.933594 189.355469 180.425781 187.5 180.425781 C 185.644531 180.425781 184.132812 181.933594 184.132812 183.789062 " fill-opacity="1" fill-rule="nonzero"/><path fill="#000000" d="M 156.597656 180.335938 C 156.597656 182.191406 158.109375 183.703125 159.964844 183.703125 C 161.820312 183.703125 163.328125 182.191406 163.328125 180.335938 C 163.328125 178.480469 161.820312 176.972656 159.964844 176.972656 C 158.109375 176.972656 156.597656 178.480469 156.597656 180.335938 " fill-opacity="1" fill-rule="nonzero"/><path fill="#000000" d="M 215.035156 176.570312 C 213.179688 176.570312 211.671875 178.082031 211.671875 179.933594 C 211.671875 181.789062 213.179688 183.300781 215.035156 183.300781 C 216.890625 183.300781 218.398438 181.789062 218.398438 179.933594 C 218.398438 178.082031 216.890625 176.570312 215.035156 176.570312 " fill-opacity="1" fill-rule="nonzero"/><g fill="#000000" fill-opacity="1"><g transform="translate(12.980704, 257.600167)"><g><path d="M 3.875 -2.203125 C 3.738281 -2.734375 3.671875 -3.820312 3.671875 -5.46875 C 3.671875 -7.113281 3.957031 -8.785156 4.53125 -10.484375 L 5.34375 -10.484375 C 5.289062 -10.078125 5.265625 -9.675781 5.265625 -9.28125 C 5.265625 -6.875 6.054688 -4.898438 7.640625 -3.359375 C 9.222656 -1.828125 11.414062 -1.0625 14.21875 -1.0625 C 17.15625 -1.0625 19.445312 -1.738281 21.09375 -3.09375 C 22.738281 -4.457031 23.5625 -6.21875 23.5625 -8.375 C 23.5625 -10.53125 22.757812 -12.320312 21.15625 -13.75 L 7.8125 -24.03125 C 5.675781 -25.851562 4.609375 -28.296875 4.609375 -31.359375 C 4.609375 -33.097656 5.082031 -34.703125 6.03125 -36.171875 C 6.988281 -37.640625 8.320312 -38.804688 10.03125 -39.671875 C 11.75 -40.535156 13.765625 -40.96875 16.078125 -40.96875 C 18.390625 -40.96875 20.4375 -40.769531 22.21875 -40.375 L 24.421875 -40.375 L 24.5625 -33.09375 L 23.828125 -33.09375 C 23.828125 -34.96875 23.179688 -36.414062 21.890625 -37.4375 C 20.597656 -38.457031 18.75 -38.96875 16.34375 -38.96875 C 13.945312 -38.96875 11.96875 -38.351562 10.40625 -37.125 C 8.851562 -35.90625 8.078125 -34.328125 8.078125 -32.390625 C 8.078125 -30.460938 8.941406 -28.785156 10.671875 -27.359375 L 24.15625 -16.953125 C 26.207031 -15.265625 27.234375 -12.90625 27.234375 -9.875 C 27.234375 -6.851562 26.085938 -4.296875 23.796875 -2.203125 C 21.503906 -0.109375 18.710938 0.9375 15.421875 0.9375 C 13.234375 0.9375 11.050781 0.664062 8.875 0.125 C 6.695312 -0.40625 5.03125 -1.179688 3.875 -2.203125 Z M 3.875 -2.203125 "/></g></g></g><g fill="#000000" fill-opacity="1"><g transform="translate(52.621751, 257.600167)"><g><path d="M 44.046875 -0.671875 L 44.578125 -0.671875 L 44.578125 0 L 30.890625 0 L 30.890625 -0.671875 L 31.4375 -0.671875 C 32.28125 -0.671875 32.921875 -0.957031 33.359375 -1.53125 C 33.804688 -2.113281 34.03125 -2.660156 34.03125 -3.171875 C 34.03125 -3.679688 33.941406 -4.179688 33.765625 -4.671875 L 30.09375 -13.546875 L 13.21875 -13.546875 L 9.546875 -4.875 C 9.316406 -4.289062 9.203125 -3.742188 9.203125 -3.234375 C 9.203125 -2.722656 9.425781 -2.164062 9.875 -1.5625 C 10.320312 -0.96875 10.988281 -0.671875 11.875 -0.671875 L 12.40625 -0.671875 L 12.40625 0 L -0.328125 0 L -0.328125 -0.671875 L 0.203125 -0.671875 C 1.140625 -0.671875 2.082031 -0.992188 3.03125 -1.640625 C 3.988281 -2.285156 4.78125 -3.25 5.40625 -4.53125 C 15.144531 -25.351562 20.21875 -36.253906 20.625 -37.234375 C 21.375 -39.109375 21.773438 -40.351562 21.828125 -40.96875 L 22.421875 -40.96875 L 38.90625 -4.53125 C 40.195312 -1.957031 41.910156 -0.671875 44.046875 -0.671875 Z M 14.078125 -15.546875 L 29.296875 -15.546875 L 21.828125 -33.828125 Z M 14.078125 -15.546875 "/></g></g></g><g fill="#000000" fill-opacity="1"><g transform="translate(105.676271, 257.600167)"><g><path d="M 30.15625 -34.5 C 30.832031 -33.207031 31.171875 -31.648438 31.171875 -29.828125 C 31.171875 -28.003906 30.4375 -26.320312 28.96875 -24.78125 C 27.5 -23.25 25.785156 -22.238281 23.828125 -21.75 C 27.078125 -21.394531 29.753906 -20.21875 31.859375 -18.21875 C 33.972656 -16.21875 35.03125 -14.023438 35.03125 -11.640625 C 35.03125 -9.265625 34.570312 -7.316406 33.65625 -5.796875 C 32.75 -4.285156 31.539062 -3.128906 30.03125 -2.328125 C 27.132812 -0.773438 23.863281 0 20.21875 0 L 3.671875 0 L 3.671875 -0.671875 L 4.46875 -0.671875 C 5.582031 -0.671875 6.515625 -1.015625 7.265625 -1.703125 C 8.023438 -2.390625 8.425781 -3.242188 8.46875 -4.265625 L 8.46875 -35.765625 C 8.425781 -37.234375 7.757812 -38.28125 6.46875 -38.90625 C 5.894531 -39.21875 5.226562 -39.375 4.46875 -39.375 L 3.671875 -39.375 L 3.671875 -40.046875 L 17.28125 -40.046875 C 23.914062 -40.046875 28.207031 -38.195312 30.15625 -34.5 Z M 30.296875 -11.21875 C 30.296875 -17.84375 25.113281 -21.15625 14.75 -21.15625 L 14.75 -21.828125 C 22.582031 -21.828125 26.5 -24.5625 26.5 -30.03125 C 26.5 -35.363281 23.40625 -38.03125 17.21875 -38.03125 L 12.671875 -38.03125 L 12.671875 -2 L 20.15625 -2 C 23.175781 -2 25.617188 -2.765625 27.484375 -4.296875 C 29.359375 -5.835938 30.296875 -8.144531 30.296875 -11.21875 Z M 30.296875 -11.21875 "/></g></g></g><g fill="#000000" fill-opacity="1"><g transform="translate(152.524565, 257.600167)"><g><path d="M 14.546875 -38.328125 C 17.972656 -40.085938 21.742188 -40.96875 25.859375 -40.96875 C 29.972656 -40.96875 33.742188 -40.085938 37.171875 -38.328125 C 40.597656 -36.578125 43.320312 -34.097656 45.34375 -30.890625 C 47.363281 -27.691406 48.375 -24.066406 48.375 -20.015625 C 48.375 -15.972656 47.363281 -12.347656 45.34375 -9.140625 C 43.320312 -5.941406 40.597656 -3.460938 37.171875 -1.703125 C 33.742188 0.0546875 30.226562 0.9375 26.625 0.9375 C 23.019531 0.9375 19.835938 0.425781 17.078125 -0.59375 C 14.328125 -1.625 11.9375 -3.050781 9.90625 -4.875 C 7.882812 -6.695312 6.285156 -8.921875 5.109375 -11.546875 C 3.929688 -14.171875 3.34375 -17.25 3.34375 -20.78125 C 3.34375 -24.320312 4.351562 -27.691406 6.375 -30.890625 C 8.394531 -34.097656 11.117188 -36.578125 14.546875 -38.328125 Z M 13.3125 -6.359375 C 16.675781 -2.828125 20.847656 -1.0625 25.828125 -1.0625 C 30.804688 -1.0625 34.984375 -2.828125 38.359375 -6.359375 C 41.742188 -9.898438 43.4375 -14.453125 43.4375 -20.015625 C 43.4375 -25.578125 41.742188 -30.125 38.359375 -33.65625 C 34.984375 -37.195312 30.804688 -38.96875 25.828125 -38.96875 C 20.847656 -38.96875 16.675781 -37.195312 13.3125 -33.65625 C 9.957031 -30.125 8.28125 -25.578125 8.28125 -20.015625 C 8.28125 -14.453125 9.957031 -9.898438 13.3125 -6.359375 Z M 13.3125 -6.359375 "/></g></g></g><g fill="#000000" fill-opacity="1"><g transform="translate(212.986532, 257.600167)"><g><path d="M 47.375 -20.015625 C 47.375 -13.835938 45.453125 -8.957031 41.609375 -5.375 C 37.765625 -1.789062 32.546875 0 25.953125 0 L 3.671875 0 L 3.671875 -0.671875 L 4.53125 -0.671875 C 5.601562 -0.671875 6.492188 -1.023438 7.203125 -1.734375 C 7.921875 -2.441406 8.300781 -3.285156 8.34375 -4.265625 L 8.34375 -35.765625 C 8.300781 -36.835938 7.910156 -37.707031 7.171875 -38.375 C 6.441406 -39.039062 5.539062 -39.375 4.46875 -39.375 L 3.671875 -39.375 L 3.671875 -40.046875 L 25.953125 -40.046875 C 30.316406 -40.046875 34.109375 -39.242188 37.328125 -37.640625 C 40.554688 -36.035156 43.035156 -33.71875 44.765625 -30.6875 C 46.503906 -27.664062 47.375 -24.109375 47.375 -20.015625 Z M 12.671875 -38.03125 L 12.671875 -2 L 25.953125 -2 C 31.078125 -2 35.128906 -3.609375 38.109375 -6.828125 C 41.085938 -10.054688 42.578125 -14.453125 42.578125 -20.015625 C 42.578125 -25.578125 41.085938 -29.96875 38.109375 -33.1875 C 35.128906 -36.414062 31.078125 -38.03125 25.953125 -38.03125 Z M 12.671875 -38.03125 "/></g></g></g><g fill="#000000" fill-opacity="1"><g transform="translate(272.514234, 257.600167)"><g><path d="M 4.609375 -0.671875 C 5.671875 -0.671875 6.566406 -1.015625 7.296875 -1.703125 C 8.035156 -2.390625 8.425781 -3.222656 8.46875 -4.203125 L 8.46875 -35.90625 C 8.46875 -36.882812 8.085938 -37.707031 7.328125 -38.375 C 6.578125 -39.039062 5.671875 -39.375 4.609375 -39.375 L 3.671875 -39.375 L 3.671875 -40.046875 L 23.15625 -40.046875 C 24.976562 -40.046875 26.578125 -40.175781 27.953125 -40.4375 C 29.335938 -40.707031 30.226562 -40.929688 30.625 -41.109375 L 30.625 -33.5 L 29.890625 -33.5625 L 29.890625 -34.5625 C 29.890625 -35.5 29.578125 -36.300781 28.953125 -36.96875 C 28.335938 -37.632812 27.539062 -37.96875 26.5625 -37.96875 L 12.671875 -37.96875 L 12.671875 -21.015625 L 24.09375 -21.015625 C 24.976562 -21.015625 25.65625 -21.28125 26.125 -21.8125 C 26.59375 -22.351562 26.828125 -23.023438 26.828125 -23.828125 L 26.828125 -24.6875 L 27.5625 -24.6875 L 27.5625 -15.34375 L 26.828125 -15.34375 L 26.828125 -16.21875 C 26.828125 -17.457031 26.359375 -18.300781 25.421875 -18.75 C 25.066406 -18.882812 24.691406 -18.972656 24.296875 -19.015625 L 12.671875 -19.015625 L 12.671875 -2.0625 L 23.15625 -2.0625 C 25.207031 -2.0625 26.929688 -2.414062 28.328125 -3.125 C 29.734375 -3.84375 30.800781 -4.691406 31.53125 -5.671875 C 32.269531 -6.648438 33.015625 -7.941406 33.765625 -9.546875 L 34.4375 -9.546875 L 30.765625 0 L 3.671875 0 L 3.671875 -0.671875 Z M 4.609375 -0.671875 "/></g></g></g><g fill="#000000" fill-opacity="1"><g transform="translate(317.76092, 257.600167)"><g><path d="M 44.640625 -39.375 L 44.109375 -39.375 C 43.128906 -39.375 42.171875 -39.050781 41.234375 -38.40625 C 40.304688 -37.757812 39.503906 -36.789062 38.828125 -35.5 C 29.128906 -14.675781 24.082031 -3.773438 23.6875 -2.796875 C 22.925781 -0.929688 22.523438 0.3125 22.484375 0.9375 L 21.890625 0.9375 L 5.40625 -35.4375 C 4.113281 -38.0625 2.398438 -39.375 0.265625 -39.375 L -0.265625 -39.375 L -0.265625 -40.046875 L 13.40625 -40.046875 L 13.40625 -39.375 L 12.875 -39.375 C 12.03125 -39.375 11.394531 -39.070312 10.96875 -38.46875 C 10.550781 -37.875 10.34375 -37.332031 10.34375 -36.84375 C 10.34375 -36.351562 10.410156 -35.835938 10.546875 -35.296875 L 22.484375 -6.203125 L 34.765625 -35.171875 C 34.984375 -35.742188 35.09375 -36.285156 35.09375 -36.796875 C 35.09375 -37.316406 34.867188 -37.875 34.421875 -38.46875 C 33.984375 -39.070312 33.316406 -39.375 32.421875 -39.375 L 31.96875 -39.375 L 31.96875 -40.046875 L 44.640625 -40.046875 Z M 44.640625 -39.375 "/></g></g></g></svg>